<svg fill="#1f2328" viewBox="0 0 24 24" xmlns="http://www.w3.org/2000/svg">
  <path d="M12.017 0C5.396 0 .029 5.367.029 11.987c0 5.079 3.158 9.417 7.618 10.956.6-.225 1.005-.825 1.005-1.462 0-.735-.025-2.688-.025-5.27-3.009.654-3.792-.829-4.042-1.588-.136-.347-.738-1.588-1.263-1.907-.431-.23-1.05-.796-.025-.821.98-.025 1.684.895 1.909 1.263 1.125 1.833 2.884 1.32 3.642 1.05.113-.825.442-1.32.804-1.588-2.639-.3-5.462-1.335-5.462-5.931 0-1.32.442-2.388 1.263-3.228-.113-.3-.553-1.54.113-3.176 0 0 1.05-.3 3.33 1.26.96-.265 1.98-.398 3-.398 1.02 0 2.04.133 3 .398 2.28-1.56 3.33-1.26 3.33-1.26.666 1.636.226 2.876.113 3.176.821.84 1.263 1.908 1.263 3.228 0 4.608-2.823 5.631-5.462 5.931.431.375.804 1.092.804 2.222 0 1.606-.025 2.896-.025 3.286 0 .315.226.69.825.57C20.565 21.917 24 17.495 24 11.987 24 5.367 18.633.001 12.017.001z"/>
</svg>